<svg height="1875.8374" viewBox="0 0 1949.4525 1875.8374" width="1949.4525" xmlns="http://www.w3.org/2000/svg"><path d="m0 1873.3875c0-6.4403 934.21895-1783.54553 965.53705-1836.67965l21.6358-36.70785 23.63065 41.46351c12.997 22.80438 108.2443 204.10948 211.6603 402.89899 103.4161 198.79015 311.9533 598.4686 463.4157 888.1744 212.5359 406.5223 272.4558 528.5952 262.5462 534.8747-7.0623 4.4752-92.1697 8.2025-189.1275 8.2831l-176.2874.1427-51.9881-52.7157c-130.4295-132.2539-358.398-252.1576-613.16565-322.5042l-114.1373-31.5157 142.672-7.1562c134.02835-6.7224 285.22435-2.1905 367.88875 11.0283 27.6297 4.4184 36.349 2.6082 36.349-7.5466 0-25.0877-349.7382-664.38688-363.46345-664.38688-10.0027 0-80.6061 123.0686-354.6845 618.24568-134.64074 243.2559-245.5443 443.1853-246.45279 444.2876-4.0573 4.9234-386.02876 14.6319-386.02876 9.8107z" fill="#6790eb" stroke-width="9.51148"/></svg>