<svg height="94.064201pt" width="92.910645pt" xmlns="http://www.w3.org/2000/svg"><g fill="none" transform="translate(-.22975 -.233069)"><path d="m337 168.5c0 93.06-75.44 168.5-168.5 168.5s-168.50000196-75.44-168.5-168.5c-.00000196-93.06 75.44-168.5 168.5-168.5s168.5 75.44 168.5 168.5z" fill="#1756b6" transform="matrix(.367599 0 0 -.372163 .22975 125.652)"/><path d="m337 168.5c0 93.06-75.44 168.5-168.5 168.5s-168.50000196-75.44-168.5-168.5c-.00000196-93.06 75.44-168.5 168.5-168.5s168.5 75.44 168.5 168.5z" fill="#fff" transform="matrix(.344502 0 0 -.348779 4.12159 121.711)"/><path d="m337 168.5c0 93.06-75.44 168.5-168.5 168.5s-168.50000196-75.44-168.5-168.5c-.00000196-93.06 75.44-168.5 168.5-168.5s168.5 75.44 168.5 168.5z" fill="#1756b6" transform="matrix(.329115 0 0 -.333201 6.71445 119.086)"/><g fill="#fff" fill-rule="evenodd" transform="translate(17.7274 18.6574)"><path d="m141.863 81.3435c40.14-29.0813 9.7-27.5339 5.613-74.00623-3.902-44.38297-128.7873 130.91973-147.476 38.84943 3.4347 78.1653 101.342 64.5143 141.863 35.1568z" transform="matrix(.310629 0 0 .314486 39.0784 32.6895)"/><path d="m50.052 145.784c40.0619 29.188 29.1837.716 72.119-17.531 41.005-17.426-164.3096-82.0277-82.5209-128.253-73.2786 27.4212-30.04062 116.318 10.4019 145.784z" transform="matrix(.310629 0 0 .314486 25.7597 40.8443)"/><path d="m4.81846 79.1466c-15.38016 47.1204 8.33674 27.9764 38.95814 63.1724 29.2448 33.612 27.239-181.6162 96.4764-118.1148-48.7238-61.2185-119.9082 7.3738-135.43454 54.9424z" transform="matrix(.310629 0 0 .314486 .181052 30.2975)"/><path d="m49.8445.00019728c-49.567393-.06629998-24.0314 16.57400272-48.04139 56.57260272-22.93061 38.2004 181.14389-30.2165 142.14589 55.2542 43.166-65.2557-44.0662-111.7599027-94.1045-111.82680272z" transform="matrix(.310629 0 0 .314486 3.54478 7.29825)"/><path d="m77.9381 28.6263c-15.2541-47.1618-23.1889-17.7336-68.64938-28.208227-43.41672-10.003703 84.71418 162.940927-8.624803 152.263927 75.401383 20.888 92.673183-76.4457 77.274183-124.0557z" transform="matrix(.310629 0 0 .314486 45.1633 .198339)"/></g></g></svg>