<svg height="113.025" width="90.919998" xmlns="http://www.w3.org/2000/svg"><circle cx="9.142" cy="66.044998" fill="#ff6309" r="9.142"/><circle cx="74.693001" cy="103.882" fill="#ffb515" r="9.143"/><path d="m75.234 69.246c-1.56 10.962-11.006 19.419-22.393 19.419-2.975 0-5.818-.579-8.423-1.627l-7.841 13.581c5.022 2.366 10.547 3.615 16.264 3.615 2.987 0 5.921-.343 8.759-1.008.219-4.291 2.538-8.39 6.537-10.697 3.994-2.307 8.695-2.271 12.519-.321 5.963-6.331 9.53-14.353 10.24-22.962z" fill="#c90016"/><path d="m30.222 66.045c0-7.207 3.387-13.637 8.654-17.782l-7.84-13.579c-1.839 1.284-3.579 2.738-5.197 4.358-4.537 4.537-7.791 10.015-9.581 15.993 3.607 2.336 5.996 6.393 5.996 11.01s-2.389 8.674-5.996 11.01c1.79 5.978 5.044 11.457 9.581 15.993 1.617 1.618 3.356 3.073 5.193 4.357l7.84-13.582c-5.265-4.144-8.65-10.573-8.65-17.778z" fill="#ffb515"/><circle cx="74.684998" cy="28.195" fill="#c90016" r="9.142"/><path d="m80.664 39.928c-.014.007-.028.013-.042.02-1.465.957-3.444 1.262-5.1 1.403-8.695.746-16.926-7.754-16.926-20.917 0-8.316 1.261-15.453 4.638-20.385.007-.017.015-.032.023-.049-6.579 5.493-12.097 13.709-15.179 23.633-.493 1.587-.896 3.171-1.238 4.749-1.214 5.596-1.512 11.098-.973 16.212.373-.122.75-.233 1.132-.336 1.865-.498 3.822-.771 5.843-.771 11.39 0 20.84 8.458 22.406 19.422h15.672c-.712-8.617-4.284-16.646-10.256-22.981z" fill="#ff6309"/></svg>