<svg height="19.971508" viewBox="0 0 20.263393 19.971508" width="20.263393" xmlns="http://www.w3.org/2000/svg"><path d="m.94261808.00150773c.85000002-.05 3.39000002 1.15999997 3.44000002 1.18999997-1.29.81-2.39 1.9-3.22 3.19-.82000002-1.57-1.57000002-3.46999997-.91000002-4.12999997.17-.17.4-.25.69-.25m18.14999992.13c.41-.05.74.01.94.21 1.07 1.07999997-1.9 5.80999997-2.4 6.31999997-.51.5-1.81.04-2.88-1.03-1.07-1.08-1.53-2.37-1.03-2.88.41-.41 3.62-2.44999997 5.37-2.61999997m-8.84.43c1.29 0 2.53.26 3.66.71999997-.49.32-.85.57-.97.69-.99.99-.55 2.86 1.03 4.44.98.97 2.12 1.56 3.06 1.56.68 0 1.14-.29 1.38-.53.17-.17.44-.56.75-1.03.51 1.18.78 2.47.78 3.8400003 0 5.36-4.33 9.72-9.69 9.72-5.3599999 0-9.68999992-4.36-9.68999992-9.72 0-5.3600003 4.33000002-9.69000027 9.68999992-9.69000027z"/></svg>