<svg height="20.00112" viewBox="0 0 19.106161 20.00112" width="19.106161" xmlns="http://www.w3.org/2000/svg"><path d="m7.8323629 0c-.35 0-.71.03-1.05.1-3.62.66-6.16999995 3.79-6.37999995 5.86-.11 1.01.44 1.77.73999995 2.1.81.91 2.44 1.6 3.48 2.17-1.51 1.27-2.2 1.91-2.88 2.63-1.01999995 1.07-1.73999995 2.24-1.73999995 3.09 0 .27-.05 1.14.31 1.82.13.26.51 1.12 1.64999995 1.76.73.41 1.76.56 2.78.42 3.14-.45 7.3500001-3.12 10.3600001-5.6 1.91-1.58 3.31-3.12 3.71-3.85.33-.63.37-1.72.18-2.41-.54-1.95-4.91-5.94-8.48-7.54-.8200001-.37-1.7600001-.55-2.6800001-.55m1.06 2.91c.25 0 .47.03.66.09 1.1500001.3 3.0800001 1.68 2.9100001 2.94-.23 1.66-1.68 2.33-3.3500001 2.09-.98-.13-2.93-1.23-2.78-3.14.11-1.49 1.52-1.99 2.56-1.98m-.02 1.74c-.27 0-.48.06-.58.22-.47.72-.24 1.22.18 1.55.15-.38 1.7900001.03 1.8300001.37 1.42-1.07-.3900001-2.13-1.4300001-2.14z"/></svg>