<svg height="42.026001" viewBox="0 0 44.653538 42.026001" width="44.653538" xmlns="http://www.w3.org/2000/svg"><path d="m44.451 35.882c-.192-.815-.481-1.618-.919-2.346-.871-1.466-2.199-2.585-3.594-3.489-1.409-.901-2.916-1.624-4.458-2.219-2.953-1.141-2.81-1.103-4.803-1.814-4.416-1.574-6.868-3.914-7.022-6.452-.074-1.229 1.126-5.234 6.074-4.282 1.175.226 2.287.543 3.382 1.037 1.009.456 3.954 1.884 4.986 3.917.078.897.394 1.244 1.656 1.84.949.448 1.907.935 1.993 2.039.005.06.051.109.131.121.052 0 .1-.031.121-.081.182-.439.915-.989 1.461-.839.063.016.119-.009.148-.061.03-.052.02-.116-.021-.158l-.863-.854c-.311-.31-.651-.721-.939-1.249-.078-.142-.145-.282-.204-.417-.038-.094-.076-.187-.114-.281-.724-1.895-2.073-3.925-3.465-5.24-.756-.727-1.588-1.367-2.475-1.913-.891-.538-1.819-1.016-2.833-1.302l-.074.256c.947.327 1.833.849 2.662 1.419.828.579 1.593 1.243 2.273 1.979.971 1.032 1.736 2.23 2.282 3.512l-1.993-2.477.055.858-1.633-1.841.101.862-1.586-1.279.136.584c-.357-.236-3.525-1.496-5.106-2.09s-4.705-3.524-3.804-7.232c0 0-1.477-.574-2.535-.965-1.043-.376-2.09-.717-3.14-1.046-2.1-.658-4.212-1.258-6.335-1.818-2.123-.557-4.26-1.062-6.409-1.508-2.15-.441-4.312-.834-6.5-1.053l-.039.333c2.153.331 4.278.833 6.387 1.382 2.108.555 4.202 1.166 6.279 1.829 2.076.665 4.139 1.37 6.177 2.128 1.018.379 2.033.769 3.027 1.188.211.088.426.18.641.272-1.224-.241-2.448-.432-3.673-.591-2.211-.281-4.424-.458-6.639-.558-2.214-.1-4.43-.116-6.642-.034-2.211.086-4.423.259-6.605.633l.043.304c2.18-.224 4.375-.246 6.563-.183 2.189.067 4.374.231 6.547.477 2.172.246 4.335.567 6.469.986 1.316.261 2.624.564 3.903.921-1.011-.101-2.017-.127-3.014-.115-1.977.03-3.926.247-5.848.574-1.922.33-3.818.773-5.675 1.346-1.851.579-3.681 1.267-5.361 2.249l.116.208c1.72-.828 3.568-1.358 5.426-1.779 1.862-.414 3.751-.698 5.644-.868 1.891-.168 3.792-.224 5.663-.101 1.664.11 3.317.363 4.83.849.065.445.366 1.346.511 1.796-4.255 1.957-4.794 5.477-4.446 7.365.409 2.214 2.011 3.902 3.904 4.995 1.567.891 3.168 1.459 4.726 2.047 1.555.583 3.095 1.143 4.467 1.918 1.352.747 2.476 1.901 3.391 3.21 1.837 2.638 2.572 5.964 2.792 9.245l.365-.01c.008-3.323-.47-6.802-2.252-9.812-.588-.986-1.314-1.921-2.171-2.733.992.384 1.961.818 2.887 1.333 1.373.779 2.667 1.749 3.548 3.051.444.647.755 1.375.983 2.133.202.767.295 1.565.329 2.371h.312c.011-.823-.035-1.655-.201-2.477z" fill="#78909c"/></svg>