<svg height="432.01404" viewBox="0 0 14.287683 14.287683" width="432.01404" xmlns="http://www.w3.org/2000/svg" xmlns:xlink="http://www.w3.org/1999/xlink"><linearGradient id="a" gradientUnits="userSpaceOnUse" x1="12.072256" x2="12.072256" y1="295.403734" y2="283.366931"><stop offset="0"/><stop offset="1" stop-opacity="0"/></linearGradient><g stroke-width=".92729" transform="matrix(1.0385 0 0 1.0385 -1.735269 -1.648619)"><path d="m8.467 1.588a6.879 6.879 0 1 1 0 13.757 6.879 6.879 0 0 1 0-13.757z" fill="#4380b4"/><path d="m12.997 283.36a10.716 10.716 0 0 1 .497 3.185 10.716 10.716 0 0 1 -4.695 8.852 6.88 6.88 0 0 0 6.547-6.868 6.88 6.88 0 0 0 -2.349-5.17z" fill="url(#a)" opacity=".25" transform="translate(0 -280.07)"/></g><path d="m8.2730506 2.9100512a3.104 3.104 0 0 0 -3.01 2.355 3.104 3.104 0 0 0 -2.353 3.008v3.1039998h3.105a3.104 3.104 0 0 0 3.01-2.3539998 3.104 3.104 0 0 0 2.3520004-3.008v-3.105zm0 .444h2.6600004v2.66a2.661 2.661 0 0 1 -1.8270004 2.524 3.104 3.104 0 0 0 .013-.265 3.104 3.104 0 0 0 -3.104-3.106 3.104 3.104 0 0 0 -.268.013 2.661 2.661 0 0 1 2.526-1.827zm-2.258 2.258a2.661 2.661 0 0 1 2.66 2.66 2.661 2.661 0 0 1 -.03.374 2.661 2.661 0 0 1 -.372.03 2.661 2.661 0 0 1 -2.661-2.661 2.661 2.661 0 0 1 .03-.374 2.661 2.661 0 0 1 .373-.03zm-.834.137a3.104 3.104 0 0 0 -.013.266 3.104 3.104 0 0 0 3.105 3.104 3.104 3.104 0 0 0 .267-.013 2.661 2.661 0 0 1 -2.525 1.8269998h-2.66v-2.6599998a2.661 2.661 0 0 1 1.826-2.524z" fill="#fff"/></svg>