<svg enable-background="new 0 0 779.617 170.079" height="600" viewBox="0 0 599.99999 600.00001" width="600" xmlns="http://www.w3.org/2000/svg"><g transform="matrix(6.7228488 0 0 6.7229017 -5263.9361 -70.921046)"><path d="m872.23977 55.171341c0 24.64394-19.97925 44.625008-44.62479 44.625008-24.64456 0-44.62309-19.981068-44.62309-44.625008 0-24.644245 19.97853-44.622169 44.62309-44.622169 24.64554 0 44.62479 19.977924 44.62479 44.622169z" fill="#0079c1"/><g fill="#fff"><path d="m490.89173-23.585335 3.65182-79.224895-24.28352-22.12009c-.57715-.37695-1.33691-.29883-1.82178.18945l-11.21875 11.2168c-.47168.47314-.56055 1.20801-.21289 1.78076l13.13428 21.631353c-2.32959 3.9165-4.19531 8.13965-5.52979 12.594237l-24.11377 5.01563c-.6709.13916-1.1543.7334-1.1543 1.42188v15.862785c0 .6709.45801 1.25195 1.10449 1.4082l23.4043 5.7207c1.24805 5.15918 3.18262 10.05078 5.73877 14.5459l-13.54639 20.6582c-.37793.57715-.29883 1.33789.18945 1.82422l11.21533 11.21680039c.47168.4707 1.20801.56152 1.7832.21582z" transform="matrix(.415288 0 0 .415288 609.13611 80.906538)"/><path d="m492.48953-21.721918.2923-79.602262-22.5218-23.60614c-.57715-.37695-1.33691-.29883-1.82178.18945l-11.21875 11.2168c-.47168.47314-.56055 1.20801-.21289 1.78076l13.13428 21.631353c-2.32959 3.9165-4.19531 8.13965-5.52979 12.594237l-24.11377 5.01563c-.6709.13916-1.1543.7334-1.1543 1.42188v15.862785c0 .6709.45801 1.25195 1.10449 1.4082l23.4043 5.7207c1.24805 5.15918 3.18262 10.05078 5.73877 14.5459l-13.54639 20.6582c-.37793.57715-.29883 1.33789.18945 1.82422l11.21533 11.21680039c.47168.4707 1.20801.56152 1.7832.21582z" transform="matrix(-.21579109 .35482154 -.35482154 -.21579109 919.22927 -144.75119)"/><path d="m491.63809-24.019439 1.65581-78.077921-23.03387-22.83296c-.57715-.37695-1.33691-.29883-1.82178.18945l-11.21875 11.2168c-.47168.47314-.56055 1.20801-.21289 1.78076l13.13428 21.631353c-2.32959 3.9165-4.19531 8.13965-5.52979 12.594237l-24.11377 5.01563c-.6709.13916-1.1543.7334-1.1543 1.42188v15.862785c0 .6709.45801 1.25195 1.10449 1.4082l23.4043 5.7207c1.24805 5.15918 3.18262 10.05078 5.73877 14.5459l-13.54639 20.6582c-.37793.57715-.29883 1.33789.18945 1.82422l11.21533 11.21680039c.47168.4707 1.20801.56152 1.7832.21582z" transform="matrix(-.20731956 -.35983709 .35983709 -.20731956 958.85963 231.66525)"/></g><path d="m849.15577 55.172072c0 11.895612-9.64397 21.540458-21.54035 21.540458-11.89591 0-21.53953-9.644846-21.53953-21.540458 0-11.895759 9.64362-21.539088 21.53953-21.539088 11.89638 0 21.54035 9.643329 21.54035 21.539088z" fill="#0079c1"/></g></svg>