<svg height="600" viewBox="0 0 600 600" width="600" xmlns="http://www.w3.org/2000/svg"><path d="m806.64135 56.760424c0-21.029496 17.04896-38.080006 38.07982-38.080006 21.03003 0 38.07837 17.05051 38.07837 38.080006 0 21.029757-17.04834 38.077585-38.07837 38.077585-21.03086 0-38.07982-17.047828-38.07982-38.077585z" fill="#0068c8" stroke-width="1.76784" transform="matrix(-7.87833862 0 0 7.87840058 6954.993711 -147.171816)"/><g fill="#fff" transform="matrix(1.79236373 0 0 1.79095625 -1719.786245 -2777.536911)"><path d="m1116.8938 1689.4194c-5.9501-6.4533-9.8718-14.7504-11.0814-23.4444s.2983-17.7464 4.2608-25.5789 10.362-14.4102 18.0827-18.5864c7.7206-4.1761 16.7282-5.9321 25.4522-4.9618 14.0311 1.5606 27.0437 10.436 33.618 22.9295l79.0542 10.904h-90.1007c-5.6213-7.1952-14.1129-12.0817-23.1583-13.3266-6.4597-.889-13.1604.045-19.131 2.6661-5.9705 2.6213-11.1929 6.9222-14.9103 12.2794-3.7173 5.3573-5.9185 11.7546-6.2844 18.265s1.1045 13.1141 4.1982 18.8541z"/><g transform="translate(15 2)"><path d="m1113.0085 1717-121.00003-87c-5.79688 11.4486-8.0911 24.6415-6.49942 37.3749 1.59169 12.7335 7.06282 24.9557 15.49945 34.6251 11.0648 12.6815 27.2298 20.7807 44.0118 22.0513-7.9223-2.5599-15.1793-7.1499-20.8872-13.2109-5.7079-6.0609-9.8546-13.5801-11.935-21.6416-2.383-9.2343-2.0312-19.1565 1-28.1988z"/><path d="m1106.2919 1740.501-106.31654-29.9171c-.85695 9.9442 1.09424 20.1153 5.57014 29.0365 4.476 8.9212 11.4632 16.5656 19.9473 21.8232 12.5858 7.7995 28.4343 10.1316 42.7334 6.2881-14.3249.096-28.5169-7.0219-37.0072-18.5599-4.7934-6.514-7.8065-14.3248-8.6296-22.3704z"/></g><path d="m1169.7781 1675.729c-1.9753 4.1002-3.3486 8.4898-4.0625 12.9847-2.2142 13.9416 1.9287 28.0237 6.0575 41.5228 4.1289 13.499 8.3376 27.5466 6.255 41.5085-1.5555 10.428-6.6401 20.1889-13.7567 27.9681s-16.2003 13.6286-25.9621 17.6121c-16.0797 6.5616-34.1667 8.1034-51.125 4.3581v46.4118l13.9455-33.13c18.0735 4.1247 37.4229 2.4559 54.5233-4.7024 12.2473-5.1268 23.4211-13.1088 31.4777-23.6621 8.0567-10.5533 12.8628-23.7392 12.5223-37.0119-.4093-15.9555-7.944-30.7436-15.2368-44.9408-7.2927-14.1972-14.6821-29.0987-14.7632-45.0592-.01-1.2875.035-2.5753.125-3.8597z"/></g></svg>