<svg height="304.64902" width="250" xmlns="http://www.w3.org/2000/svg"><g transform="matrix(.66176471 0 0 .66176471 -2.720589 -264.022595)"><g fill="#2397d4" transform="translate(-.208039 7.000051)"><path d="m177.89056 597.12767h-.01c-6.6729 0-12.10712-5.42671-12.11419-12.09501-.01-6.69051 5.42514-12.12528 12.1041-12.13236 6.68298 0 12.1162 5.42671 12.12426 12.09501 0 6.69052-5.42512 12.1263-12.10408 12.13337z"/><path d="m210.60812 588.24494c-6.23094 0-11.30246-5.06615-11.30657-11.29167-.01-6.24198 5.06123-11.31635 11.2963-11.32148 6.23916 0 11.31068 5.0651 11.31683 11.29063 0 6.24197-5.06224 11.31635-11.29628 11.32252h-.01z"/><circle cx="191.206393" cy="555.959464" r="10.095156" stroke-width="1.442165"/><circle cx="207.358639" cy="538.999604" r="9.287543" stroke-width=".807612"/><circle cx="187.572137" cy="522.443554" r="8.076125" stroke-width=".769155"/></g><path d="m143.92581 615.04098c-10.4504 13.54548-18.92581 28.78103-18.92581 47.23792 0 40.00634 30.35843 73 68 73 37.64044 0 68-32.99349 68-73 0-18.46054-8.48889-33.21199-19.53017-47.2379-4.14024-4.34463-10.11757-3.69864-14.46899-.91856-12.73296 6.58855-19.60609 9.22094-34.00084 9.15646-13.92202-.0624-21.23667-2.33602-33.97033-9.27735-4.35142-2.65919-10.96363-3.3052-15.10386 1.03943zm9.07419 11.23792c13.19828 7.29754 24.96911 11 40 11 15.0436 0 26.79494-3.70251 40-11 7.2055 10.15985 14 22.7579 14 36 0 32.80129-24.17531 59-54 59-29.82612 0-55-26.19854-55-59 0-13.22462 7.77879-25.8322 15-36z" fill="#262f45"/></g></svg>