<svg height="224" viewBox="0 0 200.172 224.00001" width="200.172" xmlns="http://www.w3.org/2000/svg"><g transform="matrix(1.85208331 0 0 1.85207693 -97.962368 -7902.921188)"><circle cx="507.46362" cy="3582.8301" opacity=".3" r="0"/><path d="m100.5002 4267.059a60.472077 60.472442 0 0 0 -47.607132 23.2988c7.375955 1.9706 12.596534 3.6642 14.160064 4.1895.0245-.9593.183589-9.5391.183589-9.5391s.0202-.1964.124999-.2988c.13497-.1318.330078-.092.330078-.092 1.939989.281 43.348482 6.4189 60.802382 16.5899 2.15548 1.261 3.21941 2.6017 4.5488 3.9609 4.82477 4.99 11.19998 25.7389 11.88469 30.0176.0269.1681-.18083.3507-.26953.4199h-.002c-.4957.3868-1.03554.789-1.57616 1.1484-4.12998 2.7709-13.64449 9.4312-25.85142 8.3438-10.96493-.97-25.290388-7.2597-42.560284-18.6387 1.69799 3.9756 3.371 7.9635 5.04489 11.9492 2.500985 1.299 26.640524 13.5997 38.554464 13.3594 9.59593-.1999 19.85892-4.8804 23.96469-7.3516 0 0 .90227-.5436 1.29491-.2402.4295.3318.31068.8402.20898 1.3594-.25259 1.1786-.82764 3.3289-1.21873 4.3496l-.33008.832c-.46999 1.2592-.92111 2.4296-1.79101 3.1504-2.41868 2.1993-6.27908 3.9491-12.32804 6.5781-9.34995 4.09-24.51938 6.6911-38.603293 6.6016-5.04437-.1123-9.91781-.672-14.197174-1.1719-8.782187-.9915-15.927854-1.7959-20.285038 1.3555a60.472077 60.472442 0 0 0 45.517305 20.7734 60.472077 60.472442 0 0 0 60.47229-60.4726 60.472077 60.472442 0 0 0 -60.47229-60.4727zm13.4882 35.0879c-4.73327-.1509-9.24668 1.5194-12.70695 4.75-3.458684 3.2199-5.437952 7.6097-5.613251 12.3399-.326998 9.7581 7.334241 17.9803 17.083881 18.3398 4.75477.1596 9.25839-1.5118 12.71867-4.7617 3.44988-3.2099 5.42915-7.5999 5.61325-12.3301.335-9.7494-7.33546-17.9889-17.0956-18.3379zm-.14844 5.2188c6.82096.242 12.16127 5.972 11.93157 12.791-.1053 3.2885-1.49253 6.3369-3.90231 8.5976-2.41329 2.2502-5.56743 3.4203-8.87691 3.3203-6.80516-.251-12.14564-5.9877-11.91594-12.8085.1-3.3008 1.51475-6.3495 3.91403-8.5997 2.39919-2.2502 5.53828-3.42 8.84956-3.3007zm2.02147 6.2011c-3.03067 0-5.47848 1.631-5.47848 3.6602 0 2.01 2.44781 3.6504 5.47848 3.6504 3.02888 0 5.4863-1.6405 5.4863-3.6504 0-2.0292-2.45572-3.6602-5.4863-3.6602z" fill-opacity=".941176"/></g></svg>