<svg height="148" width="148" xmlns="http://www.w3.org/2000/svg" xmlns:xlink="http://www.w3.org/1999/xlink"><radialGradient id="a" cx="1027.8583" cy="477.45059" gradientTransform="matrix(1.0507753 1.0507753 -1.0507833 1.0507833 525.88971 -1084.3827)" gradientUnits="userSpaceOnUse" r="57.480274" spreadMethod="pad" xlink:href="#b"/><linearGradient id="b"><stop offset="0" stop-color="#5f8dd3"/><stop offset="1" stop-color="#162d50"/></linearGradient><radialGradient id="c" cx="1027.8583" cy="477.45059" gradientTransform="matrix(.94569776 .94569776 -.94570497 .94570497 447.86331 -788.20071)" gradientUnits="userSpaceOnUse" r="57.480274" spreadMethod="pad" xlink:href="#b"/><radialGradient id="d" cx="1027.8583" cy="477.45059" gradientTransform="matrix(.94569776 .94569776 -.94570497 .94570497 450.90469 -1055.4519)" gradientUnits="userSpaceOnUse" r="57.480274" spreadMethod="pad" xlink:href="#b"/><radialGradient id="e" cx="1027.8583" cy="477.45059" gradientTransform="matrix(.85112803 .85112803 -.85113446 .85113446 367.16622 -775.37358)" gradientUnits="userSpaceOnUse" r="57.480274" spreadMethod="pad" xlink:href="#b"/><radialGradient id="f" cx="1027.8583" cy="477.45059" gradientTransform="matrix(.85112803 .85112803 -.85113446 .85113446 372.26819 -1040.5642)" gradientUnits="userSpaceOnUse" r="57.480274" spreadMethod="pad" xlink:href="#b"/><radialGradient id="g" cx="1027.8583" cy="477.45059" gradientTransform="matrix(.85112803 .85112803 -.85113446 .85113446 374.01573 -518.01311)" gradientUnits="userSpaceOnUse" r="57.480274" spreadMethod="pad" xlink:href="#b"/><radialGradient id="h" cx="1027.8583" cy="477.45059" gradientTransform="matrix(.76601521 .76601521 -.76602101 .76602101 288.17779 -519.67927)" gradientUnits="userSpaceOnUse" r="57.480274" spreadMethod="pad" xlink:href="#b"/><radialGradient id="i" cx="1027.8583" cy="477.45059" gradientTransform="matrix(.76601521 .76601521 -.76602101 .76602101 283.38898 -774.97902)" gradientUnits="userSpaceOnUse" r="57.480274" spreadMethod="pad" xlink:href="#b"/><radialGradient id="j" cx="1027.8583" cy="477.45059" gradientTransform="matrix(.68941368 .68941368 -.68941893 .68941893 199.77384 -532.32858)" gradientUnits="userSpaceOnUse" r="57.480274" spreadMethod="pad" xlink:href="#b"/><g transform="matrix(.22288816 0 0 .22392804 -115.566383 -43.58461)"><path d="m1182.5051 525.9733c0-47.17499-38.2417-85.4166-85.4166-85.41659-47.1758.00098-85.4174 38.24261-85.4175 85.41746 0 47.17489 38.2417 85.4165 85.4166 85.41659 47.1749-.00008 85.4177-38.24286 85.4175-85.41746z" fill="url(#a)"/><path d="m1038.8171 661.11962c0-42.45748-34.4175-76.8749-76.87491-76.87492-42.45823.00081-76.8757 34.41829-76.8757 76.87571.00003 42.45743 34.41745 76.87486 76.87492 76.87491 42.45739-.00002 76.87589-34.41852 76.87569-76.8757z" fill="url(#c)"/><path d="m1041.8584 393.8684c.0001-42.4574-34.4174-76.87487-76.87485-76.87489-42.45824.00082-76.87571 34.41829-76.87571 76.87571.00004 42.45742 34.41751 76.87489 76.87489 76.87489 42.45727-.00017 76.87577-34.41867 76.87567-76.87571z" fill="url(#d)"/><path d="m899.0246 529.01469c-.00002-38.21171-30.97571-69.18741-69.18742-69.18743-38.2124.00073-69.18813 30.97646-69.18813 69.18813.00003 38.2117 30.97572 69.1874 69.18743 69.18742 38.21162-.00005 69.18826-30.9767 69.18812-69.18812z" fill="url(#e)"/><path d="m904.12658 263.82411c-.00001-38.2117-30.97571-69.18741-69.18741-69.18741-38.21241.00072-69.18814 30.97646-69.18814 69.18814.00002 38.21168 30.97572 69.18739 69.18741 69.18741 38.21163-.00006 69.18828-30.97671 69.18814-69.18814z" fill="url(#f)"/><path d="m905.87411 786.37515c-.00003-38.21171-30.97572-69.1874-69.18743-69.18742-38.2124.00073-69.18813 30.97646-69.18814 69.18814.00004 38.21169 30.97573 69.18738 69.18743 69.18743 38.21162-.00007 69.18828-30.97672 69.18814-69.18815z" fill="url(#g)"/><path d="m766.85033 654.2702c-.00001-34.39054-27.87814-62.26867-62.26867-62.26867-34.39116.00065-62.26931 27.8788-62.26931 62.2693.00001 34.39053 27.87814 62.26866 62.26867 62.26868 34.39046-.00005 62.26944-27.87903 62.26931-62.26931z" fill="url(#h)"/><path d="m762.06153 398.97041c-.00003-34.39053-27.87816-62.26866-62.26867-62.26867-34.39118.00066-62.26933 27.87881-62.26932 62.26932 0 34.39052 27.87814 62.26865 62.26867 62.26868 34.39046-.00005 62.26945-27.87905 62.26932-62.26933z" fill="url(#i)"/><path d="m630.57914 524.22594c-.00001-30.95148-25.09033-56.0418-56.04182-56.04181-30.95204.00058-56.04238 25.09092-56.04238 56.04239.00002 30.95147 25.09034 56.04179 56.04181 56.04181 30.95142-.00005 56.04251-25.09114 56.04239-56.04239z" fill="url(#j)"/></g></svg>