<svg height="239.54463" width="258.98926" xmlns="http://www.w3.org/2000/svg" xmlns:xlink="http://www.w3.org/1999/xlink"><pattern id="a" patternTransform="translate(-298.34995 240.86648)" xlink:href="#d"/><filter id="b" height="1.04484" width="1.029283" x="-.014642" y="-.02242"><feGaussianBlur stdDeviation=".42580173"/></filter><filter id="c" height="1.427438" width="1.121889" x="-.080923" y="-.145695"><feGaussianBlur stdDeviation="1.2812499"/></filter><pattern id="d" height="2.786072" patternTransform="translate(-298.34995 240.86648)" patternUnits="userSpaceOnUse" width="3.250417"><path d="m.06633584.00000024h1.06136064v.92869056h-1.06136064z" opacity=".99"/><path d="m1.12769648.9286908h1.06136064v.92869056h-1.06136064z" opacity=".99"/><path d="m2.18905712.00000024h1.06136064v.92869056h-1.06136064z" opacity=".99"/><path d="m2.18905712 1.85738136h1.06136064v.92869056h-1.06136064z" opacity=".99"/><path d="m.0000008 1.85738136h1.06136064v.92869056h-1.06136064z" opacity=".99"/></pattern><filter id="e" height="1.195028" width="1.289138" x="-.144569" y="-.097514"><feGaussianBlur stdDeviation="3.1826429"/></filter><linearGradient id="f" gradientTransform="matrix(1.9253543 0 0 2.424854 -118.53124 -149.30655)" gradientUnits="userSpaceOnUse" x1="127.32143" x2="127.32143" y1="16.177502" y2="119.03465"><stop offset="0" stop-color="#fff"/><stop offset="1" stop-color="#fff" stop-opacity="0"/></linearGradient><linearGradient id="g" gradientUnits="userSpaceOnUse" x1="154.529035" x2="151.636808" y1="112.213677" y2="57.018893"><stop offset="0"/><stop offset="1" stop-opacity="0"/></linearGradient><g transform="translate(1.722306 -6.573903)"><ellipse cx="97.934288" cy="88.062141" fill="#7b7b7b" filter="url(#b)" opacity=".99" rx="51.972347" ry="33.941124" stroke="#8f8f8f" stroke-linejoin="round" transform="matrix(2.4207197 0 0 3.2758984 -109.29913 -158.53743)"/><ellipse cx="128.21428" cy="131.53572" fill="#3e5495" opacity=".99" rx="59.642857" ry="48.035713" stroke="#3d5292" stroke-linejoin="round" stroke-width=".90182" transform="matrix(2.1041326 0 0 2.3374733 -142.61947 -185.35919)"/><ellipse cx="126.07143" cy="116.71429" fill="#4962ae" opacity=".99" rx="63.214287" ry="53.92857" transform="matrix(1.9557719 0 0 1.9680241 -120.12084 -114.02305)"/><g font-family="Bitstream Vera Sans"><text fill="#fff0ff" filter="url(#e)" stroke="#fff0ff" stroke-width="5" transform="matrix(1.62639402 0 0 1.2972437 354.762538 -79.326527)" x="-181.64458" y="178.59599"><tspan fill="#fff0ff" font-family="Courier 10 Pitch" font-size="144" stroke="#fff0ff" stroke-width="5" x="-181.64458" y="178.59599">S</tspan></text><g transform="matrix(1.14890779 0 0 .9163913 -1.578757 0)"><text fill="#4962ae" x="53.020477" y="166.25648"><tspan fill="#4962ae" font-family="Courier 10 Pitch" font-size="203.846" x="53.020477" y="166.25648">S</tspan></text><text fill="url(#g)" x="53.020477" y="166.25648"><tspan fill="url(#g)" font-family="Courier 10 Pitch" font-size="203.846" x="53.020477" y="166.25648">S</tspan></text><text fill="url(#a)" x="53.020477" y="166.25648"><tspan fill="url(#a)" font-family="Courier 10 Pitch" font-size="203.846" x="53.020477" y="166.25648">S</tspan></text></g></g><path d="m129.01431 14.890708c-69.603472 1.186534-117.640056 46.291361-117.996716 92.837262 73.624482 20.71875 156.685596 21.97866 232.142716-3.46409-6.46798-51.787786-60.40963-90.289221-114.146-89.373172z" fill="url(#f)" fill-rule="evenodd"/><g fill="none" transform="translate(-242.87573 14.875667)"><path d="m91.468907 126.96891.478103 21.56218h74.58408" filter="url(#c)" stroke="#fff" stroke-width="6" transform="matrix(1.9999989 0 0 1.9999989 115.93801 -131.93768)"/><path d="m297.87572 122.5.95621 43.12434h149.16808" stroke="#000" stroke-width="5.87562"/></g></g></svg>