<svg height="600" width="600" xmlns="http://www.w3.org/2000/svg"><circle cx="300" cy="300" fill="#04a" r="300"/><g fill="#fff"><path d="m212.82393 166.14904c-4.33594 21.51937 1.89488 46.15172 10.60547 75.9375.52594 1.79709-.49312 4.09659-1.41356 4.36453-3.95494 1.15134-10.73588-.075-12.04828-2.76863-6.78732-13.9365-10.01494-28.18837-17.94366-41.90821-5.48428-9.49004-11.15747-18.54507-17.91506-24.66797-8.20819-7.43728-14.64028-8.89885-23.42288-5.22947-11.07919 4.62881-17.77247 15.72684-20.06831 25.67869-2.32978 10.09931-1.35506 21.75778.46781 31.875 2.14547 11.90765 4.87491 21.30459 8.38303 32.44734-2.67656 7.91381-18.78534 51.34781-22.6799 81.45891-4.9996 38.65443-19.060034 155.61225 109.81303 142.60884 47.5335-4.79616 86.26706-21.45478 122.92134-38.54635 16.797-7.83225 37.86853-17.93653 58.125-29.0625 20.26632-11.13131 39.06741-22.99575 53.4375-35.62499 14.39335-12.64979 24.87769-26.50669 22.96875-40.3125-3.0764-22.24875-17.83153-38.7885-37.5-51.5625-19.74168-12.82144-53.451-24.73566-77.81409-31.85391-31.96706-9.33985-56.71463-12.97022-86.71716-14.60269-1.68-30.39656 2.37169-70.39631-16.87537-93.69872-4.45763-5.39681-10.95591-8.82787-18.75-9.375-12.52566.50438-29.54869 4.86666-33.57366 24.84263z"/><g stroke="#fff" stroke-width="3.96997pt" transform="matrix(1.6173551 0 0 1.6173551 -1485.5115 -62.807462)"><path d="m1212.5374 120.93165c-5.8954-4.87644-52.1257 68.06508-41.903 75.63449 6.1468 4.59854 44.5364-73.03416 41.903-75.63449z"/><path d="m1159.3921 110.71143c-2.9179-3.3877-18.4008 75.21764-11.2416 78.69798 6.1468 4.59855 16.8525-74.60891 11.2416-78.69798z"/></g></g></svg>